<svg width="66" height="167" viewBox="0 0 66 167" fill="none" xmlns="http://www.w3.org/2000/svg">
<path d="M64.8953 63.7477C61.6257 51.5814 50.9586 48.0044 41.6213 43.9954C41.6213 43.9954 40.2219 41.7423 38.3957 37.8759C36.2138 33.2524 34.4141 28.4581 33.0146 23.5409C30.0423 13.0236 30.2206 0 30.2206 0C30.2206 0 16.6709 11.1165 10.9004 26.6708C10.0907 28.8537 9.67997 31.1442 9.99207 33.2218C7.19807 31.8581 3.6063 31.0817 0.581055 31.4771C0.581055 31.4771 9.14852 35.9998 15.413 44.7985C18.811 50.3591 21.5259 55.7765 23.7094 61.1832C31.8227 81.2762 32.5753 101.213 33.571 127.749C33.6822 130.704 34.0252 137.631 34.3961 144.824C34.9276 155.126 35.5161 165.976 35.5595 166.486C35.5595 166.486 38.6062 149.113 44.4914 130.645C47.1404 122.332 50.3647 113.797 54.1455 106.524C61.3053 90.9642 67.92 74.998 64.8953 63.7477ZM16.8903 35.5926L16.838 35.5408C14.1034 32.2837 20.9315 16.6962 25.4262 13.8208C25.412 23.3103 30.1083 36.5788 34.1055 42.181C27.7756 40.7603 19.2087 38.5465 16.8903 35.5926ZM48.441 103.802C45.2309 110.777 40.9769 121.724 38.9504 129.847C39.1121 102.337 37.8209 77.2796 27.8891 54.5489C26.4905 51.3436 24.928 48.2124 23.2077 45.1676C24.1422 45.4536 27.7684 46.1527 32.3863 47.413C42.4179 50.1505 57.131 55.5387 59.101 65.1037C61.5128 75.4035 55.1621 89.1951 48.441 103.802Z" fill="white"/>
</svg>
